<svg id="Layer_1" data-name="Layer 1" xmlns="http://www.w3.org/2000/svg" viewBox="0 0 500 500"><path d="M369,233.41c-28,0-55.94.06-83.91,0-13,0-17.12-3.65-17.17-16.58q-.35-85.85-.09-171.7c0-13.05,5.67-17.36,18.57-15.83,95,11.26,166.12,79.44,181.83,174.42.35,2.14.65,4.3.85,6.46,1.85,19.84-1.12,23.23-20.47,23.25Q408.75,233.45,369,233.41Z" style="fill:#33b6cc"/><path d="M232.79,131c0,28.24.08,56.48,0,84.72-.06,13.34-4.12,17.82-17.26,17.86q-83.86.28-167.74,0c-13.38,0-18.23-5.95-17.07-19,8.52-96.22,86.92-176.11,181.77-185.23,16-1.54,20.29,2.11,20.34,18C232.87,75.25,232.81,103.12,232.79,131Z" style="fill:#33b6cc"/><path d="M232.84,369.37c0,28.24.12,56.48-.05,84.72-.08,14.06-4.54,17.88-18.53,16.75-83.44-6.71-155.9-69.36-177.66-153.9a254.08,254.08,0,0,1-5.73-30.89c-1.78-14,3.06-19.56,17.26-19.61q83.34-.29,166.67,0c13.95,0,17.9,4.23,18,18.23.12,28.24,0,56.48,0,84.72Z" style="fill:#33b6cc"/><path d="M364.77,467.81c-27.61,0-55.22.07-82.83,0-15.92-.06-20-4.75-18.14-20.34,11.32-96.87,81.28-169.3,176.67-182.91,2.84-.4,5.7-.76,8.56-.88,11.27-.47,15.92,3.66,16,15.16q.18,86.38,0,172.78c0,12.28-3.81,16.08-16.31,16.17C420.71,467.94,392.74,467.81,364.77,467.81Z" style="fill:#33b6cc"/></svg>