<svg id="Layer_1" data-name="Layer 1" xmlns="http://www.w3.org/2000/svg" viewBox="0 0 500 500"><path d="M108.39,228.88c-7.22,0-14.44,0-21.66,0-3.36,0-4.42-.94-4.44-4.28q-.09-22.17,0-44.34c0-3.37,1.46-4.48,4.79-4.09,24.54,2.91,42.9,20.52,46.95,45,.1.56.17,1.11.22,1.67.48,5.12-.29,6-5.28,6Z" style="fill:#33b6cc"/><path d="M73.23,202.43c0,7.3,0,14.59,0,21.88,0,3.45-1.06,4.6-4.46,4.61q-21.65.08-43.31,0c-3.45,0-4.71-1.54-4.41-4.91,2.2-24.85,22.45-45.48,46.94-47.83,4.14-.4,5.24.54,5.25,4.65Q73.26,191.64,73.23,202.43Z" style="fill:#33b6cc"/><path d="M73.25,264c0,7.29,0,14.58,0,21.87,0,3.63-1.18,4.62-4.79,4.33-21.55-1.74-40.26-17.91-45.88-39.74a65.5,65.5,0,0,1-1.47-8c-.47-3.61.79-5.05,4.45-5.06q21.53-.07,43,0c3.6,0,4.62,1.09,4.64,4.71,0,7.29,0,14.58,0,21.88Z" style="fill:#33b6cc"/><path d="M107.31,289.4c-7.13,0-14.25,0-21.38,0-4.12,0-5.16-1.22-4.69-5.25,2.92-25,21-43.72,45.62-47.23.73-.1,1.47-.2,2.21-.23,2.91-.12,4.11.95,4.12,3.92q0,22.3,0,44.61c0,3.17-1,4.15-4.21,4.18C121.76,289.44,114.54,289.4,107.31,289.4Z" style="fill:#33b6cc"/><path d="M206.46,285.73a25.06,25.06,0,0,1-12.56-3.08,21.09,21.09,0,0,1-8.51-9,31.47,31.47,0,0,1-3-14.5V215.79H198.6V256.6q0,7.23,3.64,11.17t10.06,3.94A15.84,15.84,0,0,0,220,269.9a12.94,12.94,0,0,0,5.27-5.46,19.29,19.29,0,0,0,1.94-9.11V215.79H243.4v68.8H227.73l-.13-17.26H230q-3.18,9.07-9,13.74A22.48,22.48,0,0,1,206.46,285.73Z" style="fill:#33b6cc"/><path d="M275.33,245.05v39.54H259.08v-68.8h15.74l.06,17.33H272.6q3.11-9.08,8.95-13.78t14.53-4.69a24.86,24.86,0,0,1,12.57,3.08,21.18,21.18,0,0,1,8.44,9,31.64,31.64,0,0,1,3.05,14.56v43.29H303.89V243.84q0-7.29-3.59-11.2t-10.06-3.9a16.17,16.17,0,0,0-7.68,1.78,12.62,12.62,0,0,0-5.3,5.42A19.32,19.32,0,0,0,275.33,245.05Z" style="fill:#33b6cc"/><path d="M343.88,205.83a9.5,9.5,0,0,1-6.83-2.64,8.93,8.93,0,0,1,0-12.91,10.23,10.23,0,0,1,13.65,0,8.9,8.9,0,0,1,0,12.91A9.54,9.54,0,0,1,343.88,205.83Zm-8.13,78.76v-68.8H352v68.8Z" style="fill:#33b6cc"/><path d="M402.46,215.79v13H361.52v-13Zm-30-17.64h16.25V265c0,2.46.52,4.21,1.55,5.27s2.83,1.59,5.37,1.59c.93,0,2,0,3.33-.13s2.34-.17,3.14-.25l1.21,12.82a44.56,44.56,0,0,1-4.92.54c-1.84.1-3.63.16-5.37.16q-10.28,0-15.42-4.58T372.5,267Z" style="fill:#33b6cc"/><path d="M443.08,286.05a34.33,34.33,0,0,1-17.87-4.47,29.93,29.93,0,0,1-11.58-12.51,44.35,44.35,0,0,1,.06-37.25,30.7,30.7,0,0,1,28.5-17.24A34.4,34.4,0,0,1,455,216.93a29.35,29.35,0,0,1,10.25,6.86,30.9,30.9,0,0,1,6.79,11.07,43.37,43.37,0,0,1,2.41,15v4.7H416.55V243.46h49.82L459,246.57a24.1,24.1,0,0,0-2-10.12,15.22,15.22,0,0,0-5.68-6.66,16.28,16.28,0,0,0-9-2.39,16.45,16.45,0,0,0-9,2.39,15.5,15.5,0,0,0-5.81,6.6,22.09,22.09,0,0,0-2,9.67v7.3a24.43,24.43,0,0,0,2.16,10.7,15.67,15.67,0,0,0,6.15,6.85,18.26,18.26,0,0,0,9.52,2.38,19.94,19.94,0,0,0,6.86-1.11,13.77,13.77,0,0,0,5.14-3.23,13.33,13.33,0,0,0,3.11-5.05l15,1.39a23.67,23.67,0,0,1-5.65,10.86,28.75,28.75,0,0,1-10.6,7.3A37.24,37.24,0,0,1,443.08,286.05Z" style="fill:#33b6cc"/></svg>